<svg xmlns="http://www.w3.org/2000/svg" xmlns:xlink="http://www.w3.org/1999/xlink" xmlns:lucid="lucid" width="1423" height="623"><g transform="translate(-78.5 -118.5)" lucid:page-tab-id="0_0"><path d="M0 0h1870.4v1323.2H0z" fill="#fff"/><path d="M300 146a6 6 0 0 1 6-6h1168a6 6 0 0 1 6 6v568a6 6 0 0 1-6 6H306a6 6 0 0 1-6-6z" stroke="#5e5e5e" stroke-width="3" fill="#fff"/><use xlink:href="#a" transform="matrix(1,0,0,1,312,152) translate(0 17.77777777777778)"/><use xlink:href="#b" transform="matrix(1,0,0,1,312,152) translate(63.95061728395062 17.77777777777778)"/><use xlink:href="#c" transform="matrix(1,0,0,1,312,152) translate(151.48148148148147 17.77777777777778)"/><path d="M1112.63 166a6 6 0 0 1 6-6h328a6 6 0 0 1 6 6v348a6 6 0 0 1-6 6h-328a6 6 0 0 1-6-6z" stroke="#5e5e5e" stroke-width="3" fill="#fff"/><path d="M1152.63 275.38a6 6 0 0 1 6-6h148a6 6 0 0 1 6 6v108a6 6 0 0 1-6 6h-148a6 6 0 0 1-6-6z" stroke="#5e5e5e" stroke-width="3" fill="#fff"/><use xlink:href="#d" transform="matrix(1,0,0,1,1164.6311436088504,281.37999549619974) translate(6.950617283950621 38.77777777777778)"/><use xlink:href="#e" transform="matrix(1,0,0,1,1164.6311436088504,281.37999549619974) translate(68.61728395061729 38.77777777777778)"/><use xlink:href="#f" transform="matrix(1,0,0,1,1164.6311436088504,281.37999549619974) translate(20.5 65.44444444444446)"/><path d="M620.98 275.68a6 6 0 0 1 6-6h148a6 6 0 0 1 6 6v108a6 6 0 0 1-6 6h-148a6 6 0 0 1-6-6z" stroke="#5e5e5e" stroke-width="3" fill="#fff"/><use xlink:href="#g" transform="matrix(1,0,0,1,632.9771484375001,281.67627595100817) translate(7.537037037037038 38.77777777777778)"/><use xlink:href="#h" transform="matrix(1,0,0,1,632.9771484375001,281.67627595100817) translate(80.31481481481481 38.77777777777778)"/><use xlink:href="#i" transform="matrix(1,0,0,1,632.9771484375001,281.67627595100817) translate(6.364197530864203 65.44444444444446)"/><use xlink:href="#j" transform="matrix(1,0,0,1,632.9771484375001,281.67627595100817) translate(68.03086419753087 65.44444444444446)"/><path d="M780.98 255.68a6 6 0 0 1 6-6h228a6 6 0 0 1 6 6v48a6 6 0 0 1-6 6h-228a6 6 0 0 1-6-6z" stroke="#000" stroke-opacity="0" stroke-width="3" fill="#fff" fill-opacity="0"/><use xlink:href="#k" transform="matrix(1,0,0,1,785.9771484375001,254.6762759510081) translate(74.93827160493828 30.27777777777778)"/><path d="M1020.98 289.68c22.1 0 40 17.9 40 40s-17.9 40-40 40h-160c-22.1 0-40-17.9-40-40s17.9-40 40-40z" stroke="#5e5e5e" stroke-width="3" fill="#fff"/><use xlink:href="#l" transform="matrix(1,0,0,1,825.9771484375001,294.67627595100817) translate(16.379012345679016 37.21805555555556)"/><path d="M783.48 307.1h20.6a.16.16 0 0 1 .17.17.16.16 0 0 0 .16.16h3.13" stroke="#5e5e5e" stroke-width="2" fill="none"/><path d="M783.5 308.1h-1.02v-2h1.02z" stroke="#5e5e5e" stroke-width=".05" fill="#5e5e5e"/><path d="M822.8 307.43l-14.27 4.63v-9.27z" stroke="#5e5e5e" stroke-width="2" fill="#5e5e5e"/><path d="M1058.1 309.38h74.53" stroke="#5e5e5e" stroke-width="2" fill="none"/><path d="M1058.12 310.38h-.47l-1.12-2h1.6z" stroke="#5e5e5e" stroke-width=".05" fill="#5e5e5e"/><path d="M1147.9 309.38l-14.27 4.63v-9.26z" stroke="#5e5e5e" stroke-width="2" fill="#5e5e5e"/><path d="M1150.13 342.7h-44.3a.17.17 0 0 0-.16.18.17.17 0 0 1-.17.17h-26.8" stroke="#5e5e5e" stroke-width="2" fill="none"/><path d="M1151.13 343.7h-1.02v-2h1.03z" stroke="#5e5e5e" stroke-width=".05" fill="#5e5e5e"/><path d="M1063.43 343.05l14.27-4.63v9.27z" stroke="#5e5e5e" stroke-width="2" fill="#5e5e5e"/><path d="M824.13 350.45h-20.17a.16.16 0 0 1-.16-.16.16.16 0 0 0-.16-.17h-2.66" stroke="#5e5e5e" stroke-width="2" fill="none"/><path d="M825.68 351.45h-1.58v-2h.47z" stroke="#5e5e5e" stroke-width=".05" fill="#5e5e5e"/><path d="M785.7 350.13L800 345.5v9.27z" stroke="#5e5e5e" stroke-width="2" fill="#5e5e5e"/><path d="M1132.63 176a6 6 0 0 1 6-6h228a6 6 0 0 1 6 6v48a6 6 0 0 1-6 6h-228a6 6 0 0 1-6-6z" stroke="#000" stroke-opacity="0" stroke-width="3" fill="#fff" fill-opacity="0"/><use xlink:href="#m" transform="matrix(1,0,0,1,1137.6311436088504,175) translate(52.77777777777778 30.27777777777778)"/><use xlink:href="#n" transform="matrix(1,0,0,1,1137.6311436088504,175) translate(116.7283950617284 30.27777777777778)"/><path d="M1332.63 235.68a6 6 0 0 1 6-6h88a6 6 0 0 1 6 6v48a6 6 0 0 1-6 6h-88a6 6 0 0 1-6-6z" stroke="#5e5e5e" stroke-width="3" fill="#fff"/><use xlink:href="#o" transform="matrix(1,0,0,1,1344.6311436088504,241.67627595100817) translate(28.74074074074074 22.27777777777778)"/><path d="M1332.63 316a6 6 0 0 1 6-6h88a6 6 0 0 1 6 6v48a6 6 0 0 1-6 6h-88a6 6 0 0 1-6-6z" stroke="#5e5e5e" stroke-width="3" fill="#fff"/><use xlink:href="#o" transform="matrix(1,0,0,1,1344.6311436088504,322) translate(28.74074074074074 22.27777777777778)"/><path d="M1332.63 396a6 6 0 0 1 6-6h88a6 6 0 0 1 6 6v48a6 6 0 0 1-6 6h-88a6 6 0 0 1-6-6z" stroke="#5e5e5e" stroke-width="3" fill="#fff"/><use xlink:href="#o" transform="matrix(1,0,0,1,1344.6311436088504,402) translate(28.74074074074074 22.27777777777778)"/><path d="M855.35 395.68a6 6 0 0 1 6-6h213.63a6 6 0 0 1 6 6v128a6 6 0 0 1-6 6H861.35a6 6 0 0 1-6-6z" stroke="#5e5e5e" stroke-width="3" fill="#fff"/><use xlink:href="#p" transform="matrix(1,0,0,1,867.3503877133668,401.67627595100817) translate(0 17.77777777777778)"/><path d="M865.06 430.68a6 6 0 0 1 6-6h183.92a6 6 0 0 1 6 6v58a6 6 0 0 1-6 6H871.06a6 6 0 0 1-6-6z" fill="#fff"/><use xlink:href="#q" transform="matrix(1,0,0,1,870.0627575050335,429.67627595100817) translate(0 13.20138888888889)"/><use xlink:href="#r" transform="matrix(1,0,0,1,870.0627575050335,429.67627595100817) translate(51.208333333333336 13.20138888888889)"/><use xlink:href="#s" transform="matrix(1,0,0,1,870.0627575050335,429.67627595100817) translate(102.41666666666667 13.20138888888889)"/><use xlink:href="#t" transform="matrix(1,0,0,1,870.0627575050335,429.67627595100817) translate(128.02083333333334 13.20138888888889)"/><use xlink:href="#u" transform="matrix(1,0,0,1,870.0627575050335,429.67627595100817) translate(0 31.924933862433868)"/><use xlink:href="#v" transform="matrix(1,0,0,1,870.0627575050335,429.67627595100817) translate(0 50.64847883597885)"/><use xlink:href="#w" transform="matrix(1,0,0,1,870.0627575050335,429.67627595100817) translate(59.74305555555556 50.64847883597885)"/><use xlink:href="#x" transform="matrix(1,0,0,1,870.0627575050335,429.67627595100817) translate(110.95138888888889 50.64847883597885)"/><path d="M854.37 556a6 6 0 0 1 6-6h214.6a6 6 0 0 1 6 6v128a6 6 0 0 1-6 6h-214.6a6 6 0 0 1-6-6z" stroke="#5e5e5e" stroke-width="3" fill="#fff"/><use xlink:href="#y" transform="matrix(1,0,0,1,866.373239275867,562) translate(0 17.77777777777778)"/><use xlink:href="#z" transform="matrix(1,0,0,1,866.373239275867,562) translate(76.41975308641976 17.77777777777778)"/><path d="M864.1 591a6 6 0 0 1 6-6h184.88a6 6 0 0 1 6 6v58a6 6 0 0 1-6 6h-184.9a6 6 0 0 1-6-6z" fill="#fff"/><use xlink:href="#A" transform="matrix(1,0,0,1,869.0856090675334,590) translate(0 13.20138888888889)"/><use xlink:href="#u" transform="matrix(1,0,0,1,869.0856090675334,590) translate(0 31.924933862433868)"/><use xlink:href="#B" transform="matrix(1,0,0,1,869.0856090675334,590) translate(0 50.64847883597885)"/><path d="M520.98 289.68c22.1 0 40 17.9 40 40s-17.9 40-40 40h-160c-22.1 0-40-17.9-40-40s17.9-40 40-40z" stroke="#5e5e5e" stroke-width="3" fill="#fff"/><use xlink:href="#C" transform="matrix(1,0,0,1,325.9771484375001,294.67627595100817) translate(15.503703703703664 37.62777777777778)"/><path d="M556.38 306.55h30.9a.16.16 0 0 0 .15-.17.16.16 0 0 1 .16-.16h13.38" stroke="#5e5e5e" stroke-width="2" fill="none"/><path d="M556.4 307.55h-.33l-.15-.27-1.27-1.73h1.76z" stroke="#5e5e5e" stroke-width=".05" fill="#5e5e5e"/><path d="M616.24 306.22l-14.26 4.64v-9.27z" stroke="#5e5e5e" stroke-width="2" fill="#5e5e5e"/><path d="M618.48 353.68H587.2a.16.16 0 0 0-.16.16.16.16 0 0 1-.16.16H573.1" stroke="#5e5e5e" stroke-width="2" fill="none"/><path d="M619.48 354.68h-1.03v-2h1.03z" stroke="#5e5e5e" stroke-width=".05" fill="#5e5e5e"/><path d="M557.84 354l14.26-4.63v9.26z" stroke="#5e5e5e" stroke-width="2" fill="#5e5e5e"/><path d="M100 275.38a6 6 0 0 1 6-6h148a6 6 0 0 1 6 6v108a6 6 0 0 1-6 6H106a6 6 0 0 1-6-6z" stroke="#5e5e5e" stroke-width="3" fill="#fff"/><use xlink:href="#D" transform="matrix(1,0,0,1,112,281.37999549619974) translate(45.19135802469136 26.77777777777778)"/><use xlink:href="#E" transform="matrix(1,0,0,1,112,281.37999549619974) translate(22.351851851851848 53.44444444444445)"/><use xlink:href="#F" transform="matrix(1,0,0,1,112,281.37999549619974) translate(9.388888888888893 80.11111111111111)"/><use xlink:href="#n" transform="matrix(1,0,0,1,112,281.37999549619974) translate(66.11728395061729 80.11111111111111)"/><path d="M262.5 308.37h30.73a.15.15 0 0 1 .14.15.15.15 0 0 0 .15.15h13.23" stroke="#5e5e5e" stroke-width="2" fill="none"/><path d="M262.53 309.37h-1.03v-2h1.03z" stroke="#5e5e5e" stroke-width=".05" fill="#5e5e5e"/><path d="M322 308.67l-14.25 4.63v-9.27z" stroke="#5e5e5e" stroke-width="2" fill="#5e5e5e"/><path d="M322.76 348h-29.98a.15.15 0 0 1-.15-.14.15.15 0 0 0-.15-.15H280" stroke="#5e5e5e" stroke-width="2" fill="none"/><path d="M323.5 347.55l.82 1.46h-1.58v-2h.55z" stroke="#5e5e5e" stroke-width=".05" fill="#5e5e5e"/><path d="M264.74 347.7l14.26-4.63v9.28z" stroke="#5e5e5e" stroke-width="2" fill="#5e5e5e"/><path d="M341.95 395.68a6 6 0 0 1 6-6h228a6 6 0 0 1 6 6v128a6 6 0 0 1-6 6h-228a6 6 0 0 1-6-6z" stroke="#5e5e5e" stroke-width="3" fill="#fff"/><g><use xlink:href="#p" transform="matrix(1,0,0,1,353.95429687500007,401.67627595100817) translate(0 17.77777777777778)"/></g><path d="M351.67 430.68a6 6 0 0 1 6-6H564.3a6 6 0 0 1 6 6v70.72a6 6 0 0 1-6 6H357.66a6 6 0 0 1-6-6z" fill="#fff"/><g><use xlink:href="#q" transform="matrix(1,0,0,1,356.6666666666667,429.6762759510081) translate(0 13.20138888888889)"/><use xlink:href="#r" transform="matrix(1,0,0,1,356.6666666666667,429.6762759510081) translate(51.208333333333336 13.20138888888889)"/><use xlink:href="#s" transform="matrix(1,0,0,1,356.6666666666667,429.6762759510081) translate(102.41666666666667 13.20138888888889)"/><use xlink:href="#t" transform="matrix(1,0,0,1,356.6666666666667,429.6762759510081) translate(128.02083333333334 13.20138888888889)"/><use xlink:href="#u" transform="matrix(1,0,0,1,356.6666666666667,429.6762759510081) translate(0 31.924933862433868)"/><use xlink:href="#G" transform="matrix(1,0,0,1,356.6666666666667,429.6762759510081) translate(0 50.64847883597885)"/><use xlink:href="#H" transform="matrix(1,0,0,1,356.6666666666667,429.6762759510081) translate(0 69.37202380952382)"/><use xlink:href="#I" transform="matrix(1,0,0,1,356.6666666666667,429.6762759510081) translate(51.208333333333336 69.37202380952382)"/><use xlink:href="#J" transform="matrix(1,0,0,1,356.6666666666667,429.6762759510081) translate(85.34722222222223 69.37202380952382)"/></g><path d="M340.98 556a6 6 0 0 1 6-6h228a6 6 0 0 1 6 6v128a6 6 0 0 1-6 6h-228a6 6 0 0 1-6-6z" stroke="#5e5e5e" stroke-width="3" fill="#fff"/><g><use xlink:href="#y" transform="matrix(1,0,0,1,352.97714843750003,562) translate(0 17.77777777777778)"/><use xlink:href="#z" transform="matrix(1,0,0,1,352.97714843750003,562) translate(76.41975308641976 17.77777777777778)"/></g><path d="M350.7 591a6 6 0 0 1 6-6h206.6a6 6 0 0 1 6 6v70.73a6 6 0 0 1-6 6H356.7a6 6 0 0 1-6-6z" fill="#fff"/><g><use xlink:href="#A" transform="matrix(1,0,0,1,355.68951822916665,590) translate(0 13.20138888888889)"/><use xlink:href="#u" transform="matrix(1,0,0,1,355.68951822916665,590) translate(0 31.924933862433868)"/><use xlink:href="#K" transform="matrix(1,0,0,1,355.68951822916665,590) translate(0 50.64847883597885)"/><use xlink:href="#L" transform="matrix(1,0,0,1,355.68951822916665,590) translate(0 69.37202380952382)"/></g><path d="M280.98 256a6 6 0 0 1 6-6h228a6 6 0 0 1 6 6v48a6 6 0 0 1-6 6h-228a6 6 0 0 1-6-6z" stroke="#000" stroke-opacity="0" stroke-width="3" fill="#fff" fill-opacity="0"/><g><use xlink:href="#k" transform="matrix(1,0,0,1,285.9771484375001,255) translate(74.93827160493828 30.27777777777778)"/></g><path d="M1120 476a6 6 0 0 1 6-6h328a6 6 0 0 1 6 6v48a6 6 0 0 1-6 6h-328a6 6 0 0 1-6-6z" stroke="#000" stroke-opacity="0" stroke-width="3" fill="#fff" fill-opacity="0"/><g><use xlink:href="#M" transform="matrix(1,0,0,1,1125,475) translate(0 12.444444444444443)"/><use xlink:href="#N" transform="matrix(1,0,0,1,1125,475) translate(42.25925925925925 12.444444444444443)"/><use xlink:href="#O" transform="matrix(1,0,0,1,1125,475) translate(0 31.111111111111107)"/></g><path d="M620.98 411.98a6 6 0 0 1 6-6h148a6 6 0 0 1 6 6v95.4a6 6 0 0 1-6 6h-148a6 6 0 0 1-6-6z" stroke="#5e5e5e" stroke-width="3" fill="#fff"/><g><use xlink:href="#P" transform="matrix(1,0,0,1,632.9771484375001,417.9750427374089) translate(0 15.999999999999998)"/><use xlink:href="#Q" transform="matrix(1,0,0,1,632.9771484375001,417.9750427374089) translate(0 36.444444444444436)"/><use xlink:href="#R" transform="matrix(1,0,0,1,632.9771484375001,417.9750427374089) translate(0 55.1111111111111)"/><use xlink:href="#S" transform="matrix(1,0,0,1,632.9771484375001,417.9750427374089) translate(0 73.77777777777776)"/></g><defs><path fill="#333" d="M233-177c-1 41-23 64-60 70L243 0h-38l-65-103H63V0H30v-248c88 3 205-21 203 71zM63-129c60-2 137 13 137-47 0-61-80-42-137-45v92" id="T"/><path fill="#333" d="M100-194c63 0 86 42 84 106H49c0 40 14 67 53 68 26 1 43-12 49-29l28 8c-11 28-37 45-77 45C44 4 14-33 15-96c1-61 26-98 85-98zm52 81c6-60-76-77-97-28-3 7-6 17-6 28h103" id="U"/><path fill="#333" d="M114-163C36-179 61-72 57 0H25l-1-190h30c1 12-1 29 2 39 6-27 23-49 58-41v29" id="V"/><path fill="#333" d="M141-36C126-15 110 5 73 4 37 3 15-17 15-53c-1-64 63-63 125-63 3-35-9-54-41-54-24 1-41 7-42 31l-33-3c5-37 33-52 76-52 45 0 72 20 72 64v82c-1 20 7 32 28 27v20c-31 9-61-2-59-35zM48-53c0 20 12 33 32 33 41-3 63-29 60-74-43 2-92-5-92 41" id="W"/><path fill="#333" d="M24-231v-30h32v30H24zM24 0v-190h32V0H24" id="X"/><path fill="#333" d="M24 0v-261h32V0H24" id="Y"/><g id="a"><use transform="matrix(0.06172839506172839,0,0,0.06172839506172839,0,0)" xlink:href="#T"/><use transform="matrix(0.06172839506172839,0,0,0.06172839506172839,15.987654320987653,0)" xlink:href="#U"/><use transform="matrix(0.06172839506172839,0,0,0.06172839506172839,28.333333333333332,0)" xlink:href="#V"/><use transform="matrix(0.06172839506172839,0,0,0.06172839506172839,35.67901234567901,0)" xlink:href="#W"/><use transform="matrix(0.06172839506172839,0,0,0.06172839506172839,48.02469135802469,0)" xlink:href="#X"/><use transform="matrix(0.06172839506172839,0,0,0.06172839506172839,52.901234567901234,0)" xlink:href="#Y"/></g><path fill="#333" d="M185-189c-5-48-123-54-124 2 14 75 158 14 163 119 3 78-121 87-175 55-17-10-28-26-33-46l33-7c5 56 141 63 141-1 0-78-155-14-162-118-5-82 145-84 179-34 5 7 8 16 11 25" id="Z"/><path fill="#333" d="M59-47c-2 24 18 29 38 22v24C64 9 27 4 27-40v-127H5v-23h24l9-43h21v43h35v23H59v120" id="aa"/><path fill="#333" d="M96-169c-40 0-48 33-48 73s9 75 48 75c24 0 41-14 43-38l32 2c-6 37-31 61-74 61-59 0-76-41-82-99-10-93 101-131 147-64 4 7 5 14 7 22l-32 3c-4-21-16-35-41-35" id="ab"/><path fill="#333" d="M106-169C34-169 62-67 57 0H25v-261h32l-1 103c12-21 28-36 61-36 89 0 53 116 60 194h-32v-121c2-32-8-49-39-48" id="ac"/><g id="b"><use transform="matrix(0.06172839506172839,0,0,0.06172839506172839,0,0)" xlink:href="#Z"/><use transform="matrix(0.06172839506172839,0,0,0.06172839506172839,14.814814814814813,0)" xlink:href="#aa"/><use transform="matrix(0.06172839506172839,0,0,0.06172839506172839,20.98765432098765,0)" xlink:href="#V"/><use transform="matrix(0.06172839506172839,0,0,0.06172839506172839,28.33333333333333,0)" xlink:href="#U"/><use transform="matrix(0.06172839506172839,0,0,0.06172839506172839,40.679012345679006,0)" xlink:href="#aa"/><use transform="matrix(0.06172839506172839,0,0,0.06172839506172839,46.85185185185185,0)" xlink:href="#ab"/><use transform="matrix(0.06172839506172839,0,0,0.06172839506172839,57.96296296296296,0)" xlink:href="#ac"/><use transform="matrix(0.06172839506172839,0,0,0.06172839506172839,70.30864197530865,0)" xlink:href="#X"/><use transform="matrix(0.06172839506172839,0,0,0.06172839506172839,75.18518518518519,0)" xlink:href="#aa"/></g><path fill="#333" d="M143 4C61 4 22-44 18-125c-5-107 100-154 193-111 17 8 29 25 37 43l-32 9c-13-25-37-40-76-40-61 0-88 39-88 99 0 61 29 100 91 101 35 0 62-11 79-27v-45h-74v-28h105v86C228-13 192 4 143 4" id="ad"/><path fill="#333" d="M135-143c-3-34-86-38-87 0 15 53 115 12 119 90S17 21 10-45l28-5c4 36 97 45 98 0-10-56-113-15-118-90-4-57 82-63 122-42 12 7 21 19 24 35" id="ae"/><path fill="#333" d="M115-194c55 1 70 41 70 98S169 2 115 4C84 4 66-9 55-30l1 105H24l-1-265h31l2 30c10-21 28-34 59-34zm-8 174c40 0 45-34 45-75s-6-73-45-74c-42 0-51 32-51 76 0 43 10 73 51 73" id="af"/><g id="c"><use transform="matrix(0.06172839506172839,0,0,0.06172839506172839,0,0)" xlink:href="#ad"/><use transform="matrix(0.06172839506172839,0,0,0.06172839506172839,17.28395061728395,0)" xlink:href="#V"/><use transform="matrix(0.06172839506172839,0,0,0.06172839506172839,24.629629629629626,0)" xlink:href="#W"/><use transform="matrix(0.06172839506172839,0,0,0.06172839506172839,36.9753086419753,0)" xlink:href="#ae"/><use transform="matrix(0.06172839506172839,0,0,0.06172839506172839,48.08641975308642,0)" xlink:href="#af"/></g><path fill="#333" d="M63-220v92h138v28H63V0H30v-248h175v28H63" id="ag"/><g id="d"><use transform="matrix(0.06172839506172839,0,0,0.06172839506172839,0,0)" xlink:href="#ag"/><use transform="matrix(0.06172839506172839,0,0,0.06172839506172839,13.518518518518517,0)" xlink:href="#U"/><use transform="matrix(0.06172839506172839,0,0,0.06172839506172839,25.864197530864196,0)" xlink:href="#aa"/><use transform="matrix(0.06172839506172839,0,0,0.06172839506172839,32.03703703703704,0)" xlink:href="#ab"/><use transform="matrix(0.06172839506172839,0,0,0.06172839506172839,43.14814814814815,0)" xlink:href="#ac"/></g><g id="e"><use transform="matrix(0.06172839506172839,0,0,0.06172839506172839,0,0)" xlink:href="#ad"/><use transform="matrix(0.06172839506172839,0,0,0.06172839506172839,17.28395061728395,0)" xlink:href="#V"/><use transform="matrix(0.06172839506172839,0,0,0.06172839506172839,24.629629629629626,0)" xlink:href="#W"/><use transform="matrix(0.06172839506172839,0,0,0.06172839506172839,36.9753086419753,0)" xlink:href="#ae"/><use transform="matrix(0.06172839506172839,0,0,0.06172839506172839,48.08641975308642,0)" xlink:href="#af"/></g><path fill="#333" d="M84 4C-5 8 30-112 23-190h32v120c0 31 7 50 39 49 72-2 45-101 50-169h31l1 190h-30c-1-10 1-25-2-33-11 22-28 36-60 37" id="ah"/><path fill="#333" d="M177-190C167-65 218 103 67 71c-23-6-38-20-44-43l32-5c15 47 100 32 89-28v-30C133-14 115 1 83 1 29 1 15-40 15-95c0-56 16-97 71-98 29-1 48 16 59 35 1-10 0-23 2-32h30zM94-22c36 0 50-32 50-73 0-42-14-75-50-75-39 0-46 34-46 75s6 73 46 73" id="ai"/><path fill="#333" d="M100-194c62-1 85 37 85 99 1 63-27 99-86 99S16-35 15-95c0-66 28-99 85-99zM99-20c44 1 53-31 53-75 0-43-8-75-51-75s-53 32-53 75 10 74 51 75" id="aj"/><path fill="#333" d="M117-194c89-4 53 116 60 194h-32v-121c0-31-8-49-39-48C34-167 62-67 57 0H25l-1-190h30c1 10-1 24 2 32 11-22 29-35 61-36" id="ak"/><g id="f"><use transform="matrix(0.06172839506172839,0,0,0.06172839506172839,0,0)" xlink:href="#ae"/><use transform="matrix(0.06172839506172839,0,0,0.06172839506172839,11.11111111111111,0)" xlink:href="#ah"/><use transform="matrix(0.06172839506172839,0,0,0.06172839506172839,23.45679012345679,0)" xlink:href="#ai"/><use transform="matrix(0.06172839506172839,0,0,0.06172839506172839,35.80246913580247,0)" xlink:href="#U"/><use transform="matrix(0.06172839506172839,0,0,0.06172839506172839,48.148148148148145,0)" xlink:href="#ae"/><use transform="matrix(0.06172839506172839,0,0,0.06172839506172839,59.25925925925925,0)" xlink:href="#aa"/><use transform="matrix(0.06172839506172839,0,0,0.06172839506172839,65.43209876543209,0)" xlink:href="#X"/><use transform="matrix(0.06172839506172839,0,0,0.06172839506172839,70.30864197530863,0)" xlink:href="#aj"/><use transform="matrix(0.06172839506172839,0,0,0.06172839506172839,82.65432098765432,0)" xlink:href="#ak"/></g><g id="g"><use transform="matrix(0.06172839506172839,0,0,0.06172839506172839,0,0)" xlink:href="#ae"/><use transform="matrix(0.06172839506172839,0,0,0.06172839506172839,11.11111111111111,0)" xlink:href="#aa"/><use transform="matrix(0.06172839506172839,0,0,0.06172839506172839,17.28395061728395,0)" xlink:href="#V"/><use transform="matrix(0.06172839506172839,0,0,0.06172839506172839,24.629629629629626,0)" xlink:href="#U"/><use transform="matrix(0.06172839506172839,0,0,0.06172839506172839,36.9753086419753,0)" xlink:href="#aa"/><use transform="matrix(0.06172839506172839,0,0,0.06172839506172839,43.148148148148145,0)" xlink:href="#ab"/><use transform="matrix(0.06172839506172839,0,0,0.06172839506172839,54.25925925925925,0)" xlink:href="#ac"/></g><path fill="#333" d="M101-234c-31-9-42 10-38 44h38v23H63V0H32v-167H5v-23h27c-7-52 17-82 69-68v24" id="al"/><g id="h"><use transform="matrix(0.06172839506172839,0,0,0.06172839506172839,0,0)" xlink:href="#al"/><use transform="matrix(0.06172839506172839,0,0,0.06172839506172839,6.172839506172839,0)" xlink:href="#U"/><use transform="matrix(0.06172839506172839,0,0,0.06172839506172839,18.51851851851852,0)" xlink:href="#aa"/><use transform="matrix(0.06172839506172839,0,0,0.06172839506172839,24.691358024691358,0)" xlink:href="#ab"/><use transform="matrix(0.06172839506172839,0,0,0.06172839506172839,35.80246913580247,0)" xlink:href="#ac"/></g><g id="i"><use transform="matrix(0.06172839506172839,0,0,0.06172839506172839,0,0)" xlink:href="#ai"/><use transform="matrix(0.06172839506172839,0,0,0.06172839506172839,12.345679012345679,0)" xlink:href="#V"/><use transform="matrix(0.06172839506172839,0,0,0.06172839506172839,19.691358024691358,0)" xlink:href="#W"/><use transform="matrix(0.06172839506172839,0,0,0.06172839506172839,32.03703703703704,0)" xlink:href="#ae"/><use transform="matrix(0.06172839506172839,0,0,0.06172839506172839,43.14814814814815,0)" xlink:href="#af"/></g><path fill="#333" d="M115-194c53 0 69 39 70 98 0 66-23 100-70 100C84 3 66-7 56-30L54 0H23l1-261h32v101c10-23 28-34 59-34zm-8 174c40 0 45-34 45-75 0-40-5-75-45-74-42 0-51 32-51 76 0 43 10 73 51 73" id="am"/><path fill="#333" d="M85-194c31 0 48 13 60 33l-1-100h32l1 261h-30c-2-10 0-23-3-31C134-8 116 4 85 4 32 4 16-35 15-94c0-66 23-100 70-100zm9 24c-40 0-46 34-46 75 0 40 6 74 45 74 42 0 51-32 51-76 0-42-9-74-50-73" id="an"/><g id="j"><use transform="matrix(0.06172839506172839,0,0,0.06172839506172839,0,0)" xlink:href="#am"/><use transform="matrix(0.06172839506172839,0,0,0.06172839506172839,12.345679012345679,0)" xlink:href="#V"/><use transform="matrix(0.06172839506172839,0,0,0.06172839506172839,19.691358024691358,0)" xlink:href="#X"/><use transform="matrix(0.06172839506172839,0,0,0.06172839506172839,24.5679012345679,0)" xlink:href="#an"/><use transform="matrix(0.06172839506172839,0,0,0.06172839506172839,36.913580246913575,0)" xlink:href="#ai"/><use transform="matrix(0.06172839506172839,0,0,0.06172839506172839,49.25925925925925,0)" xlink:href="#U"/></g><path fill="#333" d="M108 0H70L1-190h34L89-25l56-165h34" id="ao"/><path fill="#333" d="M33-154v-36h34v36H33zM33 0v-36h34V0H33" id="ap"/><g id="k"><use transform="matrix(0.06172839506172839,0,0,0.06172839506172839,0,0)" xlink:href="#Z"/><use transform="matrix(0.06172839506172839,0,0,0.06172839506172839,14.814814814814813,0)" xlink:href="#U"/><use transform="matrix(0.06172839506172839,0,0,0.06172839506172839,27.160493827160494,0)" xlink:href="#V"/><use transform="matrix(0.06172839506172839,0,0,0.06172839506172839,34.50617283950617,0)" xlink:href="#ao"/><use transform="matrix(0.06172839506172839,0,0,0.06172839506172839,45.61728395061728,0)" xlink:href="#X"/><use transform="matrix(0.06172839506172839,0,0,0.06172839506172839,50.49382716049382,0)" xlink:href="#ab"/><use transform="matrix(0.06172839506172839,0,0,0.06172839506172839,61.60493827160494,0)" xlink:href="#U"/><use transform="matrix(0.06172839506172839,0,0,0.06172839506172839,73.95061728395062,0)" xlink:href="#ap"/></g><path d="M0 4l72-265h28L28 4H0" id="aq"/><path d="M135-143c-3-34-86-38-87 0 15 53 115 12 119 90S17 21 10-45l28-5c4 36 97 45 98 0-10-56-113-15-118-90-4-57 82-63 122-42 12 7 21 19 24 35" id="ar"/><path d="M84 4C-5 8 30-112 23-190h32v120c0 31 7 50 39 49 72-2 45-101 50-169h31l1 190h-30c-1-10 1-25-2-33-11 22-28 36-60 37" id="as"/><path d="M177-190C167-65 218 103 67 71c-23-6-38-20-44-43l32-5c15 47 100 32 89-28v-30C133-14 115 1 83 1 29 1 15-40 15-95c0-56 16-97 71-98 29-1 48 16 59 35 1-10 0-23 2-32h30zM94-22c36 0 50-32 50-73 0-42-14-75-50-75-39 0-46 34-46 75s6 73 46 73" id="at"/><path d="M100-194c63 0 86 42 84 106H49c0 40 14 67 53 68 26 1 43-12 49-29l28 8c-11 28-37 45-77 45C44 4 14-33 15-96c1-61 26-98 85-98zm52 81c6-60-76-77-97-28-3 7-6 17-6 28h103" id="au"/><path d="M59-47c-2 24 18 29 38 22v24C64 9 27 4 27-40v-127H5v-23h24l9-43h21v43h35v23H59v120" id="av"/><path d="M114-163C36-179 61-72 57 0H25l-1-190h30c1 12-1 29 2 39 6-27 23-49 58-41v29" id="aw"/><path d="M-5 72V49h209v23H-5" id="ax"/><path d="M141-36C126-15 110 5 73 4 37 3 15-17 15-53c-1-64 63-63 125-63 3-35-9-54-41-54-24 1-41 7-42 31l-33-3c5-37 33-52 76-52 45 0 72 20 72 64v82c-1 20 7 32 28 27v20c-31 9-61-2-59-35zM48-53c0 20 12 33 32 33 41-3 63-29 60-74-43 2-92-5-92 41" id="ay"/><path d="M115-194c55 1 70 41 70 98S169 2 115 4C84 4 66-9 55-30l1 105H24l-1-265h31l2 30c10-21 28-34 59-34zm-8 174c40 0 45-34 45-75s-6-73-45-74c-42 0-51 32-51 76 0 43 10 73 51 73" id="az"/><g id="l"><use transform="matrix(0.04567901234567902,0,0,0.04567901234567902,0,0)" xlink:href="#aq"/><use transform="matrix(0.04567901234567902,0,0,0.04567901234567902,4.567901234567902,0)" xlink:href="#ar"/><use transform="matrix(0.04567901234567902,0,0,0.04567901234567902,12.790123456790125,0)" xlink:href="#as"/><use transform="matrix(0.04567901234567902,0,0,0.04567901234567902,21.92592592592593,0)" xlink:href="#at"/><use transform="matrix(0.04567901234567902,0,0,0.04567901234567902,31.06172839506173,0)" xlink:href="#at"/><use transform="matrix(0.04567901234567902,0,0,0.04567901234567902,40.19753086419754,0)" xlink:href="#au"/><use transform="matrix(0.04567901234567902,0,0,0.04567901234567902,49.33333333333334,0)" xlink:href="#ar"/><use transform="matrix(0.04567901234567902,0,0,0.04567901234567902,57.555555555555564,0)" xlink:href="#av"/><use transform="matrix(0.04567901234567902,0,0,0.04567901234567902,62.12345679012346,0)" xlink:href="#au"/><use transform="matrix(0.04567901234567902,0,0,0.04567901234567902,71.25925925925927,0)" xlink:href="#aw"/><use transform="matrix(0.04567901234567902,0,0,0.04567901234567902,76.69506172839507,0)" xlink:href="#aq"/><use transform="matrix(0.04567901234567902,0,0,0.04567901234567902,81.26296296296297,0)" xlink:href="#ar"/><use transform="matrix(0.04567901234567902,0,0,0.04567901234567902,89.4851851851852,0)" xlink:href="#as"/><use transform="matrix(0.04567901234567902,0,0,0.04567901234567902,98.620987654321,0)" xlink:href="#at"/><use transform="matrix(0.04567901234567902,0,0,0.04567901234567902,107.75679012345681,0)" xlink:href="#at"/><use transform="matrix(0.04567901234567902,0,0,0.04567901234567902,116.89259259259259,0)" xlink:href="#au"/><use transform="matrix(0.04567901234567902,0,0,0.04567901234567902,126.02839506172839,0)" xlink:href="#ar"/><use transform="matrix(0.04567901234567902,0,0,0.04567901234567902,134.25061728395062,0)" xlink:href="#av"/><use transform="matrix(0.04567901234567902,0,0,0.04567901234567902,138.81851851851852,0)" xlink:href="#ax"/><use transform="matrix(0.04567901234567902,0,0,0.04567901234567902,147.9543209876543,0)" xlink:href="#at"/><use transform="matrix(0.04567901234567902,0,0,0.04567901234567902,157.0901234567901,0)" xlink:href="#aw"/><use transform="matrix(0.04567901234567902,0,0,0.04567901234567902,162.52592592592592,0)" xlink:href="#ay"/><use transform="matrix(0.04567901234567902,0,0,0.04567901234567902,171.66172839506171,0)" xlink:href="#ar"/><use transform="matrix(0.04567901234567902,0,0,0.04567901234567902,179.88395061728394,0)" xlink:href="#az"/><use transform="matrix(0.04567901234567902,0,0,0.04567901234567902,189.01975308641974,0)" xlink:href="#ar"/></g><path fill="#333" d="M30-248c118-7 216 8 213 122C240-48 200 0 122 0H30v-248zM63-27c89 8 146-16 146-99s-60-101-146-95v194" id="aA"/><g id="m"><use transform="matrix(0.06172839506172839,0,0,0.06172839506172839,0,0)" xlink:href="#aA"/><use transform="matrix(0.06172839506172839,0,0,0.06172839506172839,15.987654320987653,0)" xlink:href="#U"/><use transform="matrix(0.06172839506172839,0,0,0.06172839506172839,28.333333333333332,0)" xlink:href="#V"/><use transform="matrix(0.06172839506172839,0,0,0.06172839506172839,35.67901234567901,0)" xlink:href="#W"/><use transform="matrix(0.06172839506172839,0,0,0.06172839506172839,48.02469135802469,0)" xlink:href="#X"/><use transform="matrix(0.06172839506172839,0,0,0.06172839506172839,52.901234567901234,0)" xlink:href="#Y"/></g><g id="n"><use transform="matrix(0.06172839506172839,0,0,0.06172839506172839,0,0)" xlink:href="#ak"/><use transform="matrix(0.06172839506172839,0,0,0.06172839506172839,12.345679012345679,0)" xlink:href="#aj"/><use transform="matrix(0.06172839506172839,0,0,0.06172839506172839,24.691358024691358,0)" xlink:href="#an"/><use transform="matrix(0.06172839506172839,0,0,0.06172839506172839,37.03703703703704,0)" xlink:href="#U"/><use transform="matrix(0.06172839506172839,0,0,0.06172839506172839,49.382716049382715,0)" xlink:href="#ae"/></g><path fill="#333" d="M33 0v-38h34V0H33" id="aB"/><g id="o"><use transform="matrix(0.06172839506172839,0,0,0.06172839506172839,0,0)" xlink:href="#aB"/><use transform="matrix(0.06172839506172839,0,0,0.06172839506172839,6.172839506172839,0)" xlink:href="#aB"/><use transform="matrix(0.06172839506172839,0,0,0.06172839506172839,12.345679012345679,0)" xlink:href="#aB"/></g><g id="p"><use transform="matrix(0.06172839506172839,0,0,0.06172839506172839,0,0)" xlink:href="#ae"/><use transform="matrix(0.06172839506172839,0,0,0.06172839506172839,11.11111111111111,0)" xlink:href="#U"/><use transform="matrix(0.06172839506172839,0,0,0.06172839506172839,23.45679012345679,0)" xlink:href="#V"/><use transform="matrix(0.06172839506172839,0,0,0.06172839506172839,30.80246913580247,0)" xlink:href="#ao"/><use transform="matrix(0.06172839506172839,0,0,0.06172839506172839,41.91358024691358,0)" xlink:href="#X"/><use transform="matrix(0.06172839506172839,0,0,0.06172839506172839,46.79012345679013,0)" xlink:href="#ab"/><use transform="matrix(0.06172839506172839,0,0,0.06172839506172839,57.90123456790124,0)" xlink:href="#U"/><use transform="matrix(0.06172839506172839,0,0,0.06172839506172839,70.24691358024693,0)" xlink:href="#ap"/></g><path fill="#3a414a" d="M1094-1034c0 310-213 470-541 465H362V0H176v-1462h404c343 0 514 143 514 428zM532-727c244-1 369-71 369-297 0-186-113-279-338-279H362v576h170" id="aC"/><path fill="#3a414a" d="M1112-551c0 331-186 571-502 571-301 0-495-251-495-571 0-330 184-567 501-567 302 0 496 249 496 567zM614-131c207 0 310-140 310-420 0-277-104-416-312-416-206 0-309 139-309 416 0 280 104 420 311 420" id="aD"/><path fill="#3a414a" d="M739-1436c0 71-43 115-106 115-71 0-107-38-107-115 0-76 36-114 107-114s106 38 106 114zM541-954l-269-21v-123h451v955l352 20V0H197v-123l344-20v-811" id="aE"/><path fill="#3a414a" d="M887 0v-707c0-173-79-260-238-260-205 0-307 133-307 398V0H160v-1098h147l27 148h10c69-112 181-168 336-168 259 0 389 134 389 401V0H887" id="aF"/><path fill="#3a414a" d="M1020-150v138C933 9 849 20 768 20 527 20 406-95 406-324v-637H139v-94l267-49 77-287h105v293h438v137H588v637c0 130 64 195 192 195 62 0 142-7 240-21" id="aG"/><g id="q"><use transform="matrix(0.006944444444444445,0,0,0.006944444444444445,0,0)" xlink:href="#aC"/><use transform="matrix(0.006944444444444445,0,0,0.006944444444444445,8.534722222222223,0)" xlink:href="#aD"/><use transform="matrix(0.006944444444444445,0,0,0.006944444444444445,17.069444444444446,0)" xlink:href="#aE"/><use transform="matrix(0.006944444444444445,0,0,0.006944444444444445,25.60416666666667,0)" xlink:href="#aF"/><use transform="matrix(0.006944444444444445,0,0,0.006944444444444445,34.13888888888889,0)" xlink:href="#aG"/></g><path fill="#3a414a" d="M172-543c0-365 197-575 553-575 119 0 231 20 336 59l-62 158c-100-38-189-57-268-57-247 0-371 138-371 413 0 271 120 406 361 406 105 0 212-21 321-62v160C953 0 843 20 713 20c-347 1-541-210-541-563" id="aH"/><path fill="#3a414a" d="M532-1413l-268-21v-122h451v1413l352 20V0H188v-123l344-20v-1270" id="aI"/><path fill="#3a414a" d="M578-131c239 0 309-137 309-397v-570h182V0H922l-27-147h-10C815-36 704 20 551 20c-261 0-391-134-391-401v-717h182v707c0 173 79 260 236 260" id="aJ"/><path fill="#3a414a" d="M137-547c0-322 136-571 430-571 137 0 245 53 322 160h12c-24-215-7-376-12-598h182V0H924l-27-147h-8C814-36 706 20 567 20c-294 0-430-246-430-567zm463 416c241 0 288-157 289-416 0-151-23-259-69-323s-121-97-222-97c-181 0-272 141-272 422 0 276 91 414 274 414" id="aK"/><g id="r"><use transform="matrix(0.006944444444444445,0,0,0.006944444444444445,0,0)" xlink:href="#aH"/><use transform="matrix(0.006944444444444445,0,0,0.006944444444444445,8.534722222222223,0)" xlink:href="#aI"/><use transform="matrix(0.006944444444444445,0,0,0.006944444444444445,17.069444444444446,0)" xlink:href="#aD"/><use transform="matrix(0.006944444444444445,0,0,0.006944444444444445,25.60416666666667,0)" xlink:href="#aJ"/><use transform="matrix(0.006944444444444445,0,0,0.006944444444444445,34.13888888888889,0)" xlink:href="#aK"/></g><path fill="#3a414a" d="M866-1417c-164 2-207 56-211 215v104h389v137H655V0H473v-961H156v-110l317-33c-17-319 78-463 389-463 86 0 170 12 252 35l-41 143c-69-19-138-28-207-28" id="aL"/><g id="s"><use transform="matrix(0.006944444444444445,0,0,0.006944444444444445,0,0)" xlink:href="#aD"/><use transform="matrix(0.006944444444444445,0,0,0.006944444444444445,8.534722222222223,0)" xlink:href="#aL"/></g><path fill="#3a414a" d="M1092-551c0 322-136 571-430 571-138 0-245-53-322-159h-12L291 0H158v-1556h182c-2 221 6 379-8 602h8c71-109 179-164 322-164 294 0 430 246 430 567zM629-967c-241 0-289 146-289 416 0 151 24 259 70 323s120 97 221 97c181 0 272-141 272-422 0-276-91-414-274-414" id="aM"/><path fill="#3a414a" d="M743-1550c71 0 107 38 107 114 0 77-36 115-107 115s-106-38-106-115c0-76 35-114 106-114zM854 117c0 250-172 375-432 375-109 0-205-12-287-35V303c89 26 186 39 289 39 147 0 248-74 248-215V-954l-420-21v-123h602V117" id="aN"/><path fill="#3a414a" d="M631-1118c283 0 470 204 465 491v113H322c5 250 120 375 344 375 130 0 253-25 370-76v160C925-5 804 20 672 20c-329 0-539-224-539-561 0-331 182-577 498-577zM326-662h573c0-203-91-305-272-305-183 0-284 102-301 305" id="aO"/><g id="t"><use transform="matrix(0.006944444444444445,0,0,0.006944444444444445,0,0)" xlink:href="#aD"/><use transform="matrix(0.006944444444444445,0,0,0.006944444444444445,8.534722222222223,0)" xlink:href="#aM"/><use transform="matrix(0.006944444444444445,0,0,0.006944444444444445,17.069444444444446,0)" xlink:href="#aN"/><use transform="matrix(0.006944444444444445,0,0,0.006944444444444445,25.60416666666667,0)" xlink:href="#aO"/><use transform="matrix(0.006944444444444445,0,0,0.006944444444444445,34.13888888888889,0)" xlink:href="#aH"/><use transform="matrix(0.006944444444444445,0,0,0.006944444444444445,42.673611111111114,0)" xlink:href="#aG"/></g><path fill="#3a414a" d="M285-465v-168h659v168H285" id="aP"/><g id="u"><use transform="matrix(0.006944444444444445,0,0,0.006944444444444445,0,0)" xlink:href="#aP"/><use transform="matrix(0.006944444444444445,0,0,0.006944444444444445,8.534722222222223,0)" xlink:href="#aP"/><use transform="matrix(0.006944444444444445,0,0,0.006944444444444445,17.069444444444446,0)" xlink:href="#aP"/></g><path fill="#3a414a" d="M442-897c93-139 173-221 377-221 79 0 159 15 240 45l-49 166c-82-30-157-45-224-45-221 0-340 134-340 360V0H264v-1098h148l22 201h8" id="aQ"/><path fill="#3a414a" d="M596-1118c288 2 430 92 430 366V0H895l-37-152h-8C752-34 680 17 483 20 272 23 135-98 135-307c0-221 170-337 510-348l203-7c15-197-55-305-244-305-98 0-207 27-328 82l-63-137c131-64 258-96 383-96zm-72 991c194 0 325-116 322-311v-99c-251 15-522-6-522 232 0 119 67 178 200 178" id="aR"/><path fill="#3a414a" d="M383-553l135-152 395-393h222L641-623 1163 0H950L524-504l-129 82V0H215v-1556h180c-3 337 9 689-16 1003h4" id="aS"/><g id="v"><use transform="matrix(0.006944444444444445,0,0,0.006944444444444445,0,0)" xlink:href="#aQ"/><use transform="matrix(0.006944444444444445,0,0,0.006944444444444445,8.534722222222223,0)" xlink:href="#aR"/><use transform="matrix(0.006944444444444445,0,0,0.006944444444444445,17.069444444444446,0)" xlink:href="#aF"/><use transform="matrix(0.006944444444444445,0,0,0.006944444444444445,25.60416666666667,0)" xlink:href="#aS"/><use transform="matrix(0.006944444444444445,0,0,0.006944444444444445,34.13888888888889,0)" xlink:href="#aO"/><use transform="matrix(0.006944444444444445,0,0,0.006944444444444445,42.673611111111114,0)" xlink:href="#aK"/></g><path fill="#3a414a" d="M188-739c-1-248 156-381 410-379 57 0 107 7 150 20h378v113l-196 27c43 57 65 128 65 213 2 253-212 385-489 346-67 37-100 82-100 133 0 56 54 84 161 84h187c216-2 358 93 358 297 0 251-188 377-565 377-145 0-255-26-331-80S102 283 102 186c0-141 80-231 240-270-64-31-96-83-96-154 0-75 44-139 133-192-109-41-191-166-191-309zm406 221c149 0 223-77 223-230 0-159-75-239-225-239s-225 81-225 242c0 151 76 227 227 227zm346 649c0-146-78-149-248-149H504c-153 0-230 66-230 198 0 116 90 174 271 174 263 0 395-74 395-223" id="aT"/><path fill="#3a414a" d="M1026-301c0 225-197 321-448 321-165 0-290-23-375-69v-166c129 57 252 86 370 86 183 0 275-54 275-162 0-38-16-71-49-99s-108-63-226-106c-156-57-253-112-293-160s-61-105-61-171c2-338 524-340 789-217l-60 149c-121-48-228-72-319-72-157 0-236 44-236 133 0 41 17 74 51 98s111 57 232 101c141 51 234 101 280 151s70 111 70 183" id="aU"/><path fill="#3a414a" d="M1092-551c0 322-136 571-430 571-138 0-245-53-322-159h-12c24 220 7 402 12 631H158v-1590h147l27 148h8c73-112 181-168 322-168 294 0 430 246 430 567zM629-967c-241 0-288 156-289 416 0 151 24 259 70 323s120 97 221 97c181 0 272-141 272-422 0-276-91-414-274-414" id="aV"/><g id="w"><use transform="matrix(0.006944444444444445,0,0,0.006944444444444445,0,0)" xlink:href="#aT"/><use transform="matrix(0.006944444444444445,0,0,0.006944444444444445,8.534722222222223,0)" xlink:href="#aQ"/><use transform="matrix(0.006944444444444445,0,0,0.006944444444444445,17.069444444444446,0)" xlink:href="#aR"/><use transform="matrix(0.006944444444444445,0,0,0.006944444444444445,25.60416666666667,0)" xlink:href="#aU"/><use transform="matrix(0.006944444444444445,0,0,0.006944444444444445,34.13888888888889,0)" xlink:href="#aV"/></g><g id="x"><use transform="matrix(0.006944444444444445,0,0,0.006944444444444445,0,0)" xlink:href="#aI"/><use transform="matrix(0.006944444444444445,0,0,0.006944444444444445,8.534722222222223,0)" xlink:href="#aE"/><use transform="matrix(0.006944444444444445,0,0,0.006944444444444445,17.069444444444446,0)" xlink:href="#aU"/><use transform="matrix(0.006944444444444445,0,0,0.006944444444444445,25.60416666666667,0)" xlink:href="#aG"/></g><g id="y"><use transform="matrix(0.06172839506172839,0,0,0.06172839506172839,0,0)" xlink:href="#ae"/><use transform="matrix(0.06172839506172839,0,0,0.06172839506172839,11.11111111111111,0)" xlink:href="#U"/><use transform="matrix(0.06172839506172839,0,0,0.06172839506172839,23.45679012345679,0)" xlink:href="#V"/><use transform="matrix(0.06172839506172839,0,0,0.06172839506172839,30.80246913580247,0)" xlink:href="#ao"/><use transform="matrix(0.06172839506172839,0,0,0.06172839506172839,41.91358024691358,0)" xlink:href="#X"/><use transform="matrix(0.06172839506172839,0,0,0.06172839506172839,46.79012345679013,0)" xlink:href="#ab"/><use transform="matrix(0.06172839506172839,0,0,0.06172839506172839,57.90123456790124,0)" xlink:href="#U"/></g><g id="z"><use transform="matrix(0.06172839506172839,0,0,0.06172839506172839,0,0)" xlink:href="#an"/><use transform="matrix(0.06172839506172839,0,0,0.06172839506172839,12.345679012345679,0)" xlink:href="#U"/><use transform="matrix(0.06172839506172839,0,0,0.06172839506172839,24.691358024691358,0)" xlink:href="#al"/><use transform="matrix(0.06172839506172839,0,0,0.06172839506172839,30.864197530864196,0)" xlink:href="#X"/><use transform="matrix(0.06172839506172839,0,0,0.06172839506172839,35.74074074074074,0)" xlink:href="#ak"/><use transform="matrix(0.06172839506172839,0,0,0.06172839506172839,48.08641975308642,0)" xlink:href="#aa"/><use transform="matrix(0.06172839506172839,0,0,0.06172839506172839,54.25925925925926,0)" xlink:href="#X"/><use transform="matrix(0.06172839506172839,0,0,0.06172839506172839,59.135802469135804,0)" xlink:href="#aj"/><use transform="matrix(0.06172839506172839,0,0,0.06172839506172839,71.48148148148148,0)" xlink:href="#ak"/><use transform="matrix(0.06172839506172839,0,0,0.06172839506172839,83.82716049382717,0)" xlink:href="#ap"/></g><path fill="#3a414a" d="M1243 324H-16V184h1259v140" id="aW"/><path fill="#3a414a" d="M977 0v-707c0-97-9-165-27-203s-47-57-88-57c-58 0-100 28-126 83s-40 148-40 278V0H535v-707c0-173-42-260-125-260-56 0-96 26-120 79s-36 160-36 319V0H92v-1098h127l27 148h10c45-112 112-168 201-168 109 0 180 61 213 182h6c51-121 124-182 219-182 85 0 147 30 186 92s58 165 58 309V0H977" id="aX"/><path fill="#3a414a" d="M1016-1462L389 0H211l627-1462h178" id="aY"/><path fill="#3a414a" d="M326-731c0 353 139 584 471 588 87 0 196-19 327-58v162c-97 39-217 59-358 59-433-1-637-301-637-753 0-438 243-750 668-750 147 0 274 29 383 86l-78 156c-103-52-204-78-305-78-307 1-471 259-471 588" id="aZ"/><path fill="#3a414a" d="M594-1483c248 0 420 149 418 391 0 79-21 160-59 244-73 161-414 504-572 674v8h688V0H158v-156c172-193 489-508 607-698 43-69 62-147 62-231 0-146-91-244-235-244-107 0-213 46-318 137l-102-119c128-115 269-172 422-172" id="ba"/><g id="A"><use transform="matrix(0.006944444444444445,0,0,0.006944444444444445,0,0)" xlink:href="#aU"/><use transform="matrix(0.006944444444444445,0,0,0.006944444444444445,8.534722222222223,0)" xlink:href="#aO"/><use transform="matrix(0.006944444444444445,0,0,0.006944444444444445,17.069444444444446,0)" xlink:href="#aF"/><use transform="matrix(0.006944444444444445,0,0,0.006944444444444445,25.60416666666667,0)" xlink:href="#aU"/><use transform="matrix(0.006944444444444445,0,0,0.006944444444444445,34.13888888888889,0)" xlink:href="#aD"/><use transform="matrix(0.006944444444444445,0,0,0.006944444444444445,42.673611111111114,0)" xlink:href="#aQ"/><use transform="matrix(0.006944444444444445,0,0,0.006944444444444445,51.208333333333336,0)" xlink:href="#aW"/><use transform="matrix(0.006944444444444445,0,0,0.006944444444444445,59.74305555555556,0)" xlink:href="#aX"/><use transform="matrix(0.006944444444444445,0,0,0.006944444444444445,68.27777777777779,0)" xlink:href="#aU"/><use transform="matrix(0.006944444444444445,0,0,0.006944444444444445,76.81250000000001,0)" xlink:href="#aT"/><use transform="matrix(0.006944444444444445,0,0,0.006944444444444445,85.34722222222224,0)" xlink:href="#aU"/><use transform="matrix(0.006944444444444445,0,0,0.006944444444444445,93.88194444444447,0)" xlink:href="#aY"/><use transform="matrix(0.006944444444444445,0,0,0.006944444444444445,102.4166666666667,0)" xlink:href="#aC"/><use transform="matrix(0.006944444444444445,0,0,0.006944444444444445,110.95138888888893,0)" xlink:href="#aD"/><use transform="matrix(0.006944444444444445,0,0,0.006944444444444445,119.48611111111114,0)" xlink:href="#aE"/><use transform="matrix(0.006944444444444445,0,0,0.006944444444444445,128.02083333333337,0)" xlink:href="#aF"/><use transform="matrix(0.006944444444444445,0,0,0.006944444444444445,136.5555555555556,0)" xlink:href="#aG"/><use transform="matrix(0.006944444444444445,0,0,0.006944444444444445,145.09027777777783,0)" xlink:href="#aZ"/><use transform="matrix(0.006944444444444445,0,0,0.006944444444444445,153.62500000000006,0)" xlink:href="#aI"/><use transform="matrix(0.006944444444444445,0,0,0.006944444444444445,162.15972222222229,0)" xlink:href="#aD"/><use transform="matrix(0.006944444444444445,0,0,0.006944444444444445,170.6944444444445,0)" xlink:href="#aJ"/><use transform="matrix(0.006944444444444445,0,0,0.006944444444444445,179.22916666666674,0)" xlink:href="#aK"/><use transform="matrix(0.006944444444444445,0,0,0.006944444444444445,187.76388888888897,0)" xlink:href="#ba"/></g><path fill="#3a414a" d="M82-1098h188l262 654c55 137 84 233 89 290h6c15-75 45-172 90-292l239-652h189L670 143c-45 116-99 201-156 261-87 92-259 104-414 71V330c92 17 226 18 286-29 67-53 115-195 153-291" id="bb"/><path fill="#3a414a" d="M1004 0L860-453H369L223 0H33l483-1468h195L1196 0h-192zM807-618c-63-210-144-435-195-650-51 232-127 431-190 650h385" id="bc"/><g id="B"><use transform="matrix(0.006944444444444445,0,0,0.006944444444444445,0,0)" xlink:href="#aT"/><use transform="matrix(0.006944444444444445,0,0,0.006944444444444445,8.534722222222223,0)" xlink:href="#aO"/><use transform="matrix(0.006944444444444445,0,0,0.006944444444444445,17.069444444444446,0)" xlink:href="#aD"/><use transform="matrix(0.006944444444444445,0,0,0.006944444444444445,25.60416666666667,0)" xlink:href="#aX"/><use transform="matrix(0.006944444444444445,0,0,0.006944444444444445,34.13888888888889,0)" xlink:href="#aO"/><use transform="matrix(0.006944444444444445,0,0,0.006944444444444445,42.673611111111114,0)" xlink:href="#aG"/><use transform="matrix(0.006944444444444445,0,0,0.006944444444444445,51.208333333333336,0)" xlink:href="#aQ"/><use transform="matrix(0.006944444444444445,0,0,0.006944444444444445,59.74305555555556,0)" xlink:href="#bb"/><use transform="matrix(0.006944444444444445,0,0,0.006944444444444445,68.27777777777779,0)" xlink:href="#aW"/><use transform="matrix(0.006944444444444445,0,0,0.006944444444444445,76.81250000000001,0)" xlink:href="#aX"/><use transform="matrix(0.006944444444444445,0,0,0.006944444444444445,85.34722222222224,0)" xlink:href="#aU"/><use transform="matrix(0.006944444444444445,0,0,0.006944444444444445,93.88194444444447,0)" xlink:href="#aT"/><use transform="matrix(0.006944444444444445,0,0,0.006944444444444445,102.4166666666667,0)" xlink:href="#aU"/><use transform="matrix(0.006944444444444445,0,0,0.006944444444444445,110.95138888888893,0)" xlink:href="#aY"/><use transform="matrix(0.006944444444444445,0,0,0.006944444444444445,119.48611111111114,0)" xlink:href="#aC"/><use transform="matrix(0.006944444444444445,0,0,0.006944444444444445,128.02083333333337,0)" xlink:href="#aD"/><use transform="matrix(0.006944444444444445,0,0,0.006944444444444445,136.5555555555556,0)" xlink:href="#aU"/><use transform="matrix(0.006944444444444445,0,0,0.006944444444444445,145.09027777777783,0)" xlink:href="#aO"/><use transform="matrix(0.006944444444444445,0,0,0.006944444444444445,153.62500000000006,0)" xlink:href="#bc"/><use transform="matrix(0.006944444444444445,0,0,0.006944444444444445,162.15972222222229,0)" xlink:href="#aQ"/><use transform="matrix(0.006944444444444445,0,0,0.006944444444444445,170.6944444444445,0)" xlink:href="#aQ"/><use transform="matrix(0.006944444444444445,0,0,0.006944444444444445,179.22916666666674,0)" xlink:href="#aR"/><use transform="matrix(0.006944444444444445,0,0,0.006944444444444445,187.76388888888897,0)" xlink:href="#bb"/></g><path d="M96-169c-40 0-48 33-48 73s9 75 48 75c24 0 41-14 43-38l32 2c-6 37-31 61-74 61-59 0-76-41-82-99-10-93 101-131 147-64 4 7 5 14 7 22l-32 3c-4-21-16-35-41-35" id="bd"/><path d="M106-169C34-169 62-67 57 0H25v-261h32l-1 103c12-21 28-36 61-36 89 0 53 116 60 194h-32v-121c2-32-8-49-39-48" id="be"/><path d="M100-194c62-1 85 37 85 99 1 63-27 99-86 99S16-35 15-95c0-66 28-99 85-99zM99-20c44 1 53-31 53-75 0-43-8-75-51-75s-53 32-53 75 10 74 51 75" id="bf"/><g id="C"><use transform="matrix(0.03950617283950618,0,0,0.03950617283950618,0,0)" xlink:href="#aq"/><use transform="matrix(0.03950617283950618,0,0,0.03950617283950618,3.950617283950618,0)" xlink:href="#ar"/><use transform="matrix(0.03950617283950618,0,0,0.03950617283950618,11.061728395061733,0)" xlink:href="#av"/><use transform="matrix(0.03950617283950618,0,0,0.03950617283950618,15.012345679012348,0)" xlink:href="#aw"/><use transform="matrix(0.03950617283950618,0,0,0.03950617283950618,19.713580246913583,0)" xlink:href="#au"/><use transform="matrix(0.03950617283950618,0,0,0.03950617283950618,27.614814814814817,0)" xlink:href="#av"/><use transform="matrix(0.03950617283950618,0,0,0.03950617283950618,31.565432098765438,0)" xlink:href="#bd"/><use transform="matrix(0.03950617283950618,0,0,0.03950617283950618,38.67654320987655,0)" xlink:href="#be"/><use transform="matrix(0.03950617283950618,0,0,0.03950617283950618,46.57777777777778,0)" xlink:href="#ax"/><use transform="matrix(0.03950617283950618,0,0,0.03950617283950618,54.479012345679024,0)" xlink:href="#at"/><use transform="matrix(0.03950617283950618,0,0,0.03950617283950618,62.38024691358025,0)" xlink:href="#aw"/><use transform="matrix(0.03950617283950618,0,0,0.03950617283950618,67.08148148148149,0)" xlink:href="#ay"/><use transform="matrix(0.03950617283950618,0,0,0.03950617283950618,74.98271604938273,0)" xlink:href="#ar"/><use transform="matrix(0.03950617283950618,0,0,0.03950617283950618,82.09382716049384,0)" xlink:href="#az"/><use transform="matrix(0.03950617283950618,0,0,0.03950617283950618,89.9950617283951,0)" xlink:href="#ax"/><use transform="matrix(0.03950617283950618,0,0,0.03950617283950618,97.89629629629633,0)" xlink:href="#az"/><use transform="matrix(0.03950617283950618,0,0,0.03950617283950618,105.79753086419757,0)" xlink:href="#bf"/><use transform="matrix(0.03950617283950618,0,0,0.03950617283950618,113.6987654320988,0)" xlink:href="#ar"/><use transform="matrix(0.03950617283950618,0,0,0.03950617283950618,120.80987654320992,0)" xlink:href="#au"/><use transform="matrix(0.03950617283950618,0,0,0.03950617283950618,128.71111111111117,0)" xlink:href="#ax"/><use transform="matrix(0.03950617283950618,0,0,0.03950617283950618,136.6123456790124,0)" xlink:href="#ar"/><use transform="matrix(0.03950617283950618,0,0,0.03950617283950618,143.72345679012352,0)" xlink:href="#as"/><use transform="matrix(0.03950617283950618,0,0,0.03950617283950618,151.62469135802476,0)" xlink:href="#at"/><use transform="matrix(0.03950617283950618,0,0,0.03950617283950618,159.525925925926,0)" xlink:href="#at"/><use transform="matrix(0.03950617283950618,0,0,0.03950617283950618,167.42716049382724,0)" xlink:href="#au"/><use transform="matrix(0.03950617283950618,0,0,0.03950617283950618,175.3283950617285,0)" xlink:href="#ar"/><use transform="matrix(0.03950617283950618,0,0,0.03950617283950618,182.4395061728396,0)" xlink:href="#av"/><use transform="matrix(0.03950617283950618,0,0,0.03950617283950618,186.39012345679023,0)" xlink:href="#au"/><use transform="matrix(0.03950617283950618,0,0,0.03950617283950618,194.29135802469145,0)" xlink:href="#aw"/></g><path fill="#333" d="M127-220V0H93v-220H8v-28h204v28h-85" id="bg"/><path fill="#333" d="M143 0L79-87 56-68V0H24v-261h32v163l83-92h37l-77 82L181 0h-38" id="bh"/><g id="D"><use transform="matrix(0.06172839506172839,0,0,0.06172839506172839,0,0)" xlink:href="#bg"/><use transform="matrix(0.06172839506172839,0,0,0.06172839506172839,11.049382716049381,0)" xlink:href="#W"/><use transform="matrix(0.06172839506172839,0,0,0.06172839506172839,23.39506172839506,0)" xlink:href="#ae"/><use transform="matrix(0.06172839506172839,0,0,0.06172839506172839,34.50617283950617,0)" xlink:href="#bh"/></g><path fill="#333" d="M141 0L90-78 38 0H4l68-98-65-92h35l48 74 47-74h35l-64 92 68 98h-35" id="bi"/><path fill="#333" d="M0 4l72-265h28L28 4H0" id="bj"/><g id="E"><use transform="matrix(0.06172839506172839,0,0,0.06172839506172839,0,0)" xlink:href="#U"/><use transform="matrix(0.06172839506172839,0,0,0.06172839506172839,12.345679012345679,0)" xlink:href="#bi"/><use transform="matrix(0.06172839506172839,0,0,0.06172839506172839,23.45679012345679,0)" xlink:href="#U"/><use transform="matrix(0.06172839506172839,0,0,0.06172839506172839,35.80246913580247,0)" xlink:href="#ab"/><use transform="matrix(0.06172839506172839,0,0,0.06172839506172839,46.91358024691358,0)" xlink:href="#ah"/><use transform="matrix(0.06172839506172839,0,0,0.06172839506172839,59.25925925925926,0)" xlink:href="#aa"/><use transform="matrix(0.06172839506172839,0,0,0.06172839506172839,65.4320987654321,0)" xlink:href="#aj"/><use transform="matrix(0.06172839506172839,0,0,0.06172839506172839,77.77777777777779,0)" xlink:href="#V"/><use transform="matrix(0.06172839506172839,0,0,0.06172839506172839,85.12345679012347,0)" xlink:href="#bj"/></g><g id="F"><use transform="matrix(0.06172839506172839,0,0,0.06172839506172839,0,0)" xlink:href="#aj"/><use transform="matrix(0.06172839506172839,0,0,0.06172839506172839,12.345679012345679,0)" xlink:href="#aa"/><use transform="matrix(0.06172839506172839,0,0,0.06172839506172839,18.51851851851852,0)" xlink:href="#ac"/><use transform="matrix(0.06172839506172839,0,0,0.06172839506172839,30.864197530864196,0)" xlink:href="#U"/><use transform="matrix(0.06172839506172839,0,0,0.06172839506172839,43.20987654320987,0)" xlink:href="#V"/></g><g id="G"><use transform="matrix(0.006944444444444445,0,0,0.006944444444444445,0,0)" xlink:href="#aU"/><use transform="matrix(0.006944444444444445,0,0,0.006944444444444445,8.534722222222223,0)" xlink:href="#aJ"/><use transform="matrix(0.006944444444444445,0,0,0.006944444444444445,17.069444444444446,0)" xlink:href="#aH"/><use transform="matrix(0.006944444444444445,0,0,0.006944444444444445,25.60416666666667,0)" xlink:href="#aH"/><use transform="matrix(0.006944444444444445,0,0,0.006944444444444445,34.13888888888889,0)" xlink:href="#aO"/><use transform="matrix(0.006944444444444445,0,0,0.006944444444444445,42.673611111111114,0)" xlink:href="#aU"/><use transform="matrix(0.006944444444444445,0,0,0.006944444444444445,51.208333333333336,0)" xlink:href="#aU"/></g><g id="H"><use transform="matrix(0.006944444444444445,0,0,0.006944444444444445,0,0)" xlink:href="#aT"/><use transform="matrix(0.006944444444444445,0,0,0.006944444444444445,8.534722222222223,0)" xlink:href="#aQ"/><use transform="matrix(0.006944444444444445,0,0,0.006944444444444445,17.069444444444446,0)" xlink:href="#aR"/><use transform="matrix(0.006944444444444445,0,0,0.006944444444444445,25.60416666666667,0)" xlink:href="#aU"/><use transform="matrix(0.006944444444444445,0,0,0.006944444444444445,34.13888888888889,0)" xlink:href="#aV"/></g><g id="I"><use transform="matrix(0.006944444444444445,0,0,0.006944444444444445,0,0)" xlink:href="#aL"/><use transform="matrix(0.006944444444444445,0,0,0.006944444444444445,8.534722222222223,0)" xlink:href="#aD"/><use transform="matrix(0.006944444444444445,0,0,0.006944444444444445,17.069444444444446,0)" xlink:href="#aQ"/></g><path fill="#3a414a" d="M887 0v-707c0-173-79-260-238-260-205 0-307 133-307 398V0H160v-1556h182c-2 202 6 416-8 606h10c69-112 181-168 336-168 259 0 389 134 389 401V0H887" id="bk"/><g id="J"><use transform="matrix(0.006944444444444445,0,0,0.006944444444444445,0,0)" xlink:href="#aU"/><use transform="matrix(0.006944444444444445,0,0,0.006944444444444445,8.534722222222223,0)" xlink:href="#aG"/><use transform="matrix(0.006944444444444445,0,0,0.006944444444444445,17.069444444444446,0)" xlink:href="#aQ"/><use transform="matrix(0.006944444444444445,0,0,0.006944444444444445,25.60416666666667,0)" xlink:href="#aO"/><use transform="matrix(0.006944444444444445,0,0,0.006944444444444445,34.13888888888889,0)" xlink:href="#aG"/><use transform="matrix(0.006944444444444445,0,0,0.006944444444444445,42.673611111111114,0)" xlink:href="#aH"/><use transform="matrix(0.006944444444444445,0,0,0.006944444444444445,51.208333333333336,0)" xlink:href="#bk"/></g><g id="K"><use transform="matrix(0.006944444444444445,0,0,0.006944444444444445,0,0)" xlink:href="#aM"/><use transform="matrix(0.006944444444444445,0,0,0.006944444444444445,8.534722222222223,0)" xlink:href="#aD"/><use transform="matrix(0.006944444444444445,0,0,0.006944444444444445,17.069444444444446,0)" xlink:href="#aD"/><use transform="matrix(0.006944444444444445,0,0,0.006944444444444445,25.60416666666667,0)" xlink:href="#aI"/></g><path fill="#3a414a" d="M1087-391c0 281-226 411-532 411-177 0-315-23-414-69v-178c141 57 279 86 414 86 233 0 350-80 350-240 0-69-24-123-71-160s-142-82-285-133c-139-49-239-106-299-174s-90-156-90-264c2-252 211-371 481-371 153 0 291 26 416 78l-64 164c-129-52-249-78-360-78-195 0-293 70-293 209 0 68 22 123 66 164s134 85 270 133c164 58 273 119 328 181s83 143 83 241" id="bl"/><g id="L"><use transform="matrix(0.006944444444444445,0,0,0.006944444444444445,0,0)" xlink:href="#aT"/><use transform="matrix(0.006944444444444445,0,0,0.006944444444444445,8.534722222222223,0)" xlink:href="#aO"/><use transform="matrix(0.006944444444444445,0,0,0.006944444444444445,17.069444444444446,0)" xlink:href="#aD"/><use transform="matrix(0.006944444444444445,0,0,0.006944444444444445,25.60416666666667,0)" xlink:href="#aX"/><use transform="matrix(0.006944444444444445,0,0,0.006944444444444445,34.13888888888889,0)" xlink:href="#aO"/><use transform="matrix(0.006944444444444445,0,0,0.006944444444444445,42.673611111111114,0)" xlink:href="#aG"/><use transform="matrix(0.006944444444444445,0,0,0.006944444444444445,51.208333333333336,0)" xlink:href="#aQ"/><use transform="matrix(0.006944444444444445,0,0,0.006944444444444445,59.74305555555556,0)" xlink:href="#bb"/><use transform="matrix(0.006944444444444445,0,0,0.006944444444444445,68.27777777777779,0)" xlink:href="#aW"/><use transform="matrix(0.006944444444444445,0,0,0.006944444444444445,76.81250000000001,0)" xlink:href="#aX"/><use transform="matrix(0.006944444444444445,0,0,0.006944444444444445,85.34722222222224,0)" xlink:href="#aU"/><use transform="matrix(0.006944444444444445,0,0,0.006944444444444445,93.88194444444447,0)" xlink:href="#aT"/><use transform="matrix(0.006944444444444445,0,0,0.006944444444444445,102.4166666666667,0)" xlink:href="#aU"/><use transform="matrix(0.006944444444444445,0,0,0.006944444444444445,110.95138888888893,0)" xlink:href="#aY"/><use transform="matrix(0.006944444444444445,0,0,0.006944444444444445,119.48611111111114,0)" xlink:href="#aC"/><use transform="matrix(0.006944444444444445,0,0,0.006944444444444445,128.02083333333337,0)" xlink:href="#aD"/><use transform="matrix(0.006944444444444445,0,0,0.006944444444444445,136.5555555555556,0)" xlink:href="#aU"/><use transform="matrix(0.006944444444444445,0,0,0.006944444444444445,145.09027777777783,0)" xlink:href="#aO"/><use transform="matrix(0.006944444444444445,0,0,0.006944444444444445,153.62500000000006,0)" xlink:href="#bl"/><use transform="matrix(0.006944444444444445,0,0,0.006944444444444445,162.15972222222229,0)" xlink:href="#aG"/><use transform="matrix(0.006944444444444445,0,0,0.006944444444444445,170.6944444444445,0)" xlink:href="#aR"/><use transform="matrix(0.006944444444444445,0,0,0.006944444444444445,179.22916666666674,0)" xlink:href="#aX"/><use transform="matrix(0.006944444444444445,0,0,0.006944444444444445,187.76388888888897,0)" xlink:href="#aV"/><use transform="matrix(0.006944444444444445,0,0,0.006944444444444445,196.2986111111112,0)" xlink:href="#aO"/><use transform="matrix(0.006944444444444445,0,0,0.006944444444444445,204.83333333333343,0)" xlink:href="#aK"/></g><g id="M"><use transform="matrix(0.04320987654320987,0,0,0.04320987654320987,0,0)" xlink:href="#T"/><use transform="matrix(0.04320987654320987,0,0,0.04320987654320987,11.191358024691356,0)" xlink:href="#U"/><use transform="matrix(0.04320987654320987,0,0,0.04320987654320987,19.83333333333333,0)" xlink:href="#al"/><use transform="matrix(0.04320987654320987,0,0,0.04320987654320987,24.154320987654316,0)" xlink:href="#U"/><use transform="matrix(0.04320987654320987,0,0,0.04320987654320987,32.79629629629629,0)" xlink:href="#V"/></g><g id="N"><use transform="matrix(0.04320987654320987,0,0,0.04320987654320987,0,0)" xlink:href="#aa"/><use transform="matrix(0.04320987654320987,0,0,0.04320987654320987,4.320987654320986,0)" xlink:href="#aj"/></g><path fill="#333" d="M88-194c31-1 46 15 58 34l-1-101h50l1 261h-48c-2-10 0-23-3-31C134-8 116 4 84 4 32 4 16-41 15-95c0-56 19-97 73-99zm17 164c33 0 40-30 41-66 1-37-9-64-41-64s-38 30-39 65c0 43 13 65 39 65" id="bm"/><path fill="#333" d="M185-48c-13 30-37 53-82 52C43 2 14-33 14-96s30-98 90-98c62 0 83 45 84 108H66c0 31 8 55 39 56 18 0 30-7 34-22zm-45-69c5-46-57-63-70-21-2 6-4 13-4 21h74" id="bn"/><path fill="#333" d="M135-150c-39-12-60 13-60 57V0H25l-1-190h47c2 13-1 29 3 40 6-28 27-53 61-41v41" id="bo"/><path fill="#333" d="M133-34C117-15 103 5 69 4 32 3 11-16 11-54c-1-60 55-63 116-61 1-26-3-47-28-47-18 1-26 9-28 27l-52-2c7-38 36-58 82-57s74 22 75 68l1 82c-1 14 12 18 25 15v27c-30 8-71 5-69-32zm-48 3c29 0 43-24 42-57-32 0-66-3-65 30 0 17 8 27 23 27" id="bp"/><path fill="#333" d="M25-224v-37h50v37H25zM25 0v-190h50V0H25" id="bq"/><path fill="#333" d="M25 0v-261h50V0H25" id="br"/><path fill="#333" d="M14-72v-43h91v43H14" id="bs"/><path fill="#333" d="M121-226c-27-7-43 5-38 36h38v33H83V0H34v-157H6v-33h28c-9-59 32-81 87-68v32" id="bt"/><path fill="#333" d="M115-3C79 11 28 4 28-45v-112H4v-33h27l15-45h31v45h36v33H77v99c-1 23 16 31 38 25v30" id="bu"/><path fill="#333" d="M190-63c-7 42-38 67-86 67-59 0-84-38-90-98-12-110 154-137 174-36l-49 2c-2-19-15-32-35-32-30 0-35 28-38 64-6 74 65 87 74 30" id="bv"/><path fill="#333" d="M114-157C55-157 80-60 75 0H25v-261h50l-1 109c12-26 28-41 61-42 86-1 58 113 63 194h-50c-7-57 23-157-34-157" id="bw"/><path fill="#333" d="M4 7l51-268h42L46 7H4" id="bx"/><path fill="#333" d="M-4 44V30h207v14H-4" id="by"/><path fill="#333" d="M195-6C206 82 75 100 31 46c-4-6-6-13-8-21l49-6c3 16 16 24 34 25 40 0 42-37 40-79-11 22-30 35-61 35-53 0-70-43-70-97 0-56 18-96 73-97 30 0 46 14 59 34l2-30h47zm-90-29c32 0 41-27 41-63 0-35-9-62-40-62-32 0-39 29-40 63 0 36 9 62 39 62" id="bz"/><path fill="#333" d="M137-138c1-29-70-34-71-4 15 46 118 7 119 86 1 83-164 76-172 9l43-7c4 19 20 25 44 25 33 8 57-30 24-41C81-84 22-81 20-136c-2-80 154-74 161-7" id="bA"/><path fill="#333" d="M135-194c53 0 70 44 70 98 0 56-19 98-73 100-31 1-45-17-59-34 3 33 2 69 2 105H25l-1-265h48c2 10 0 23 3 31 11-24 29-35 60-35zM114-30c33 0 39-31 40-66 0-38-9-64-40-64-56 0-55 130 0 130" id="bB"/><path fill="#333" d="M85 4C-2 5 27-109 22-190h50c7 57-23 150 33 157 60-5 35-97 40-157h50l1 190h-47c-2-12 1-28-3-38-12 25-28 42-61 42" id="bC"/><path fill="#333" d="M110-194c64 0 96 36 96 99 0 64-35 99-97 99-61 0-95-36-95-99 0-62 34-99 96-99zm-1 164c35 0 45-28 45-65 0-40-10-65-43-65-34 0-45 26-45 65 0 36 10 65 43 65" id="bD"/><path fill="#333" d="M135-194c87-1 58 113 63 194h-50c-7-57 23-157-34-157-59 0-34 97-39 157H25l-1-190h47c2 12-1 28 3 38 12-26 28-41 61-42" id="bE"/><g id="O"><use transform="matrix(0.04320987654320987,0,0,0.04320987654320987,0,0)" xlink:href="#bm"/><use transform="matrix(0.04320987654320987,0,0,0.04320987654320987,9.46296296296296,0)" xlink:href="#bn"/><use transform="matrix(0.04320987654320987,0,0,0.04320987654320987,18.104938271604933,0)" xlink:href="#bo"/><use transform="matrix(0.04320987654320987,0,0,0.04320987654320987,24.154320987654316,0)" xlink:href="#bp"/><use transform="matrix(0.04320987654320987,0,0,0.04320987654320987,32.79629629629629,0)" xlink:href="#bq"/><use transform="matrix(0.04320987654320987,0,0,0.04320987654320987,37.11728395061728,0)" xlink:href="#br"/><use transform="matrix(0.04320987654320987,0,0,0.04320987654320987,41.438271604938265,0)" xlink:href="#bs"/><use transform="matrix(0.04320987654320987,0,0,0.04320987654320987,46.58024691358024,0)" xlink:href="#bt"/><use transform="matrix(0.04320987654320987,0,0,0.04320987654320987,51.722222222222214,0)" xlink:href="#bn"/><use transform="matrix(0.04320987654320987,0,0,0.04320987654320987,60.36419753086418,0)" xlink:href="#bu"/><use transform="matrix(0.04320987654320987,0,0,0.04320987654320987,65.50617283950616,0)" xlink:href="#bv"/><use transform="matrix(0.04320987654320987,0,0,0.04320987654320987,74.14814814814814,0)" xlink:href="#bw"/><use transform="matrix(0.04320987654320987,0,0,0.04320987654320987,83.6111111111111,0)" xlink:href="#bq"/><use transform="matrix(0.04320987654320987,0,0,0.04320987654320987,87.93209876543209,0)" xlink:href="#bu"/><use transform="matrix(0.04320987654320987,0,0,0.04320987654320987,93.07407407407405,0)" xlink:href="#bx"/><use transform="matrix(0.04320987654320987,0,0,0.04320987654320987,97.39506172839504,0)" xlink:href="#bt"/><use transform="matrix(0.04320987654320987,0,0,0.04320987654320987,102.53703703703701,0)" xlink:href="#bn"/><use transform="matrix(0.04320987654320987,0,0,0.04320987654320987,111.17901234567901,0)" xlink:href="#bu"/><use transform="matrix(0.04320987654320987,0,0,0.04320987654320987,116.32098765432099,0)" xlink:href="#bv"/><use transform="matrix(0.04320987654320987,0,0,0.04320987654320987,124.96296296296296,0)" xlink:href="#bw"/><use transform="matrix(0.04320987654320987,0,0,0.04320987654320987,134.4259259259259,0)" xlink:href="#by"/><use transform="matrix(0.04320987654320987,0,0,0.04320987654320987,143.06790123456787,0)" xlink:href="#bz"/><use transform="matrix(0.04320987654320987,0,0,0.04320987654320987,152.53086419753083,0)" xlink:href="#bo"/><use transform="matrix(0.04320987654320987,0,0,0.04320987654320987,158.58024691358023,0)" xlink:href="#bp"/><use transform="matrix(0.04320987654320987,0,0,0.04320987654320987,167.2222222222222,0)" xlink:href="#bA"/><use transform="matrix(0.04320987654320987,0,0,0.04320987654320987,175.86419753086417,0)" xlink:href="#bB"/><use transform="matrix(0.04320987654320987,0,0,0.04320987654320987,185.3271604938271,0)" xlink:href="#by"/><use transform="matrix(0.04320987654320987,0,0,0.04320987654320987,193.96913580246908,0)" xlink:href="#bA"/><use transform="matrix(0.04320987654320987,0,0,0.04320987654320987,202.61111111111106,0)" xlink:href="#bC"/><use transform="matrix(0.04320987654320987,0,0,0.04320987654320987,212.07407407407402,0)" xlink:href="#bz"/><use transform="matrix(0.04320987654320987,0,0,0.04320987654320987,221.53703703703704,0)" xlink:href="#bz"/><use transform="matrix(0.04320987654320987,0,0,0.04320987654320987,231,0)" xlink:href="#bn"/><use transform="matrix(0.04320987654320987,0,0,0.04320987654320987,239.64197530864197,0)" xlink:href="#bA"/><use transform="matrix(0.04320987654320987,0,0,0.04320987654320987,248.28395061728395,0)" xlink:href="#bu"/><use transform="matrix(0.04320987654320987,0,0,0.04320987654320987,253.42592592592592,0)" xlink:href="#bq"/><use transform="matrix(0.04320987654320987,0,0,0.04320987654320987,257.7469135802469,0)" xlink:href="#bD"/><use transform="matrix(0.04320987654320987,0,0,0.04320987654320987,267.2098765432098,0)" xlink:href="#bE"/><use transform="matrix(0.04320987654320987,0,0,0.04320987654320987,276.67283950617275,0)" xlink:href="#bx"/></g><path fill="#333" d="M30-248c87 1 191-15 191 75 0 78-77 80-158 76V0H30v-248zm33 125c57 0 124 11 124-50 0-59-68-47-124-48v98" id="bF"/><path fill="#333" d="M210-169c-67 3-38 105-44 169h-31v-121c0-29-5-50-35-48C34-165 62-65 56 0H25l-1-190h30c1 10-1 24 2 32 10-44 99-50 107 0 11-21 27-35 58-36 85-2 47 119 55 194h-31v-121c0-29-5-49-35-48" id="bG"/><g id="P"><use transform="matrix(0.055555555555555546,0,0,0.055555555555555546,0,0)" xlink:href="#bF"/><use transform="matrix(0.055555555555555546,0,0,0.055555555555555546,13.33333333333333,0)" xlink:href="#W"/><use transform="matrix(0.055555555555555546,0,0,0.055555555555555546,24.44444444444444,0)" xlink:href="#V"/><use transform="matrix(0.055555555555555546,0,0,0.055555555555555546,31.05555555555555,0)" xlink:href="#W"/><use transform="matrix(0.055555555555555546,0,0,0.055555555555555546,42.16666666666666,0)" xlink:href="#bG"/><use transform="matrix(0.055555555555555546,0,0,0.055555555555555546,58.777777777777764,0)" xlink:href="#ae"/><use transform="matrix(0.055555555555555546,0,0,0.055555555555555546,68.77777777777776,0)" xlink:href="#ap"/></g><path fill="#333" d="M-5 72V49h209v23H-5" id="bH"/><path fill="#333" d="M179-190L93 31C79 59 56 82 12 73V49c39 6 53-20 64-50L1-190h34L92-34l54-156h33" id="bI"/><g id="Q"><use transform="matrix(0.04320987654320986,0,0,0.04320987654320986,0,0)" xlink:href="#al"/><use transform="matrix(0.04320987654320986,0,0,0.04320987654320986,4.320987654320986,0)" xlink:href="#X"/><use transform="matrix(0.04320987654320986,0,0,0.04320987654320986,7.734567901234565,0)" xlink:href="#Y"/><use transform="matrix(0.04320987654320986,0,0,0.04320987654320986,11.148148148148147,0)" xlink:href="#aa"/><use transform="matrix(0.04320987654320986,0,0,0.04320987654320986,15.469135802469133,0)" xlink:href="#U"/><use transform="matrix(0.04320987654320986,0,0,0.04320987654320986,24.111111111111107,0)" xlink:href="#V"/><use transform="matrix(0.04320987654320986,0,0,0.04320987654320986,29.25308641975308,0)" xlink:href="#bH"/><use transform="matrix(0.04320987654320986,0,0,0.04320987654320986,37.895061728395056,0)" xlink:href="#aa"/><use transform="matrix(0.04320987654320986,0,0,0.04320987654320986,42.216049382716044,0)" xlink:href="#bI"/><use transform="matrix(0.04320987654320986,0,0,0.04320987654320986,49.993827160493815,0)" xlink:href="#af"/><use transform="matrix(0.04320987654320986,0,0,0.04320987654320986,58.6358024691358,0)" xlink:href="#U"/></g><g id="R"><use transform="matrix(0.04320987654320986,0,0,0.04320987654320986,0,0)" xlink:href="#al"/><use transform="matrix(0.04320987654320986,0,0,0.04320987654320986,4.320987654320986,0)" xlink:href="#X"/><use transform="matrix(0.04320987654320986,0,0,0.04320987654320986,7.734567901234565,0)" xlink:href="#Y"/><use transform="matrix(0.04320987654320986,0,0,0.04320987654320986,11.148148148148147,0)" xlink:href="#aa"/><use transform="matrix(0.04320987654320986,0,0,0.04320987654320986,15.469135802469133,0)" xlink:href="#U"/><use transform="matrix(0.04320987654320986,0,0,0.04320987654320986,24.111111111111107,0)" xlink:href="#V"/><use transform="matrix(0.04320987654320986,0,0,0.04320987654320986,29.25308641975308,0)" xlink:href="#bH"/><use transform="matrix(0.04320987654320986,0,0,0.04320987654320986,37.895061728395056,0)" xlink:href="#W"/><use transform="matrix(0.04320987654320986,0,0,0.04320987654320986,46.53703703703703,0)" xlink:href="#ak"/><use transform="matrix(0.04320987654320986,0,0,0.04320987654320986,55.179012345679,0)" xlink:href="#ai"/><use transform="matrix(0.04320987654320986,0,0,0.04320987654320986,63.82098765432098,0)" xlink:href="#Y"/><use transform="matrix(0.04320987654320986,0,0,0.04320987654320986,67.23456790123456,0)" xlink:href="#U"/><use transform="matrix(0.04320987654320986,0,0,0.04320987654320986,75.87654320987653,0)" xlink:href="#bH"/><use transform="matrix(0.04320987654320986,0,0,0.04320987654320986,84.5185185185185,0)" xlink:href="#am"/><use transform="matrix(0.04320987654320986,0,0,0.04320987654320986,93.16049382716048,0)" xlink:href="#ah"/><use transform="matrix(0.04320987654320986,0,0,0.04320987654320986,101.80246913580245,0)" xlink:href="#al"/><use transform="matrix(0.04320987654320986,0,0,0.04320987654320986,105.82098765432097,0)" xlink:href="#al"/><use transform="matrix(0.04320987654320986,0,0,0.04320987654320986,110.14197530864196,0)" xlink:href="#U"/><use transform="matrix(0.04320987654320986,0,0,0.04320987654320986,118.78395061728392,0)" xlink:href="#V"/></g><g id="S"><use transform="matrix(0.04320987654320986,0,0,0.04320987654320986,0,0)" xlink:href="#an"/><use transform="matrix(0.04320987654320986,0,0,0.04320987654320986,8.641975308641973,0)" xlink:href="#X"/><use transform="matrix(0.04320987654320986,0,0,0.04320987654320986,12.055555555555552,0)" xlink:href="#ae"/><use transform="matrix(0.04320987654320986,0,0,0.04320987654320986,19.83333333333333,0)" xlink:href="#af"/><use transform="matrix(0.04320987654320986,0,0,0.04320987654320986,28.475308641975303,0)" xlink:href="#Y"/><use transform="matrix(0.04320987654320986,0,0,0.04320987654320986,31.888888888888882,0)" xlink:href="#W"/><use transform="matrix(0.04320987654320986,0,0,0.04320987654320986,40.53086419753085,0)" xlink:href="#ab"/><use transform="matrix(0.04320987654320986,0,0,0.04320987654320986,48.30864197530863,0)" xlink:href="#U"/><use transform="matrix(0.04320987654320986,0,0,0.04320987654320986,56.950617283950606,0)" xlink:href="#bH"/><use transform="matrix(0.04320987654320986,0,0,0.04320987654320986,65.59259259259258,0)" xlink:href="#an"/><use transform="matrix(0.04320987654320986,0,0,0.04320987654320986,74.23456790123456,0)" xlink:href="#X"/><use transform="matrix(0.04320987654320986,0,0,0.04320987654320986,77.64814814814814,0)" xlink:href="#ae"/><use transform="matrix(0.04320987654320986,0,0,0.04320987654320986,85.42592592592591,0)" xlink:href="#aa"/><use transform="matrix(0.04320987654320986,0,0,0.04320987654320986,89.7469135802469,0)" xlink:href="#W"/><use transform="matrix(0.04320987654320986,0,0,0.04320987654320986,98.38888888888887,0)" xlink:href="#ak"/><use transform="matrix(0.04320987654320986,0,0,0.04320987654320986,107.03086419753085,0)" xlink:href="#ab"/><use transform="matrix(0.04320987654320986,0,0,0.04320987654320986,114.80864197530862,0)" xlink:href="#U"/></g></defs></g></svg>